IMDB Rating:5.9/10.0

 GENRE: Animation | Adventure | Comedy


 General 
 Unique ID : 210793289334021176633165647473414290367 (0x9E954F909DE73B638491EB42F410BBBF) 
 Complete name : The Ant Bully (2006)
 Format : Matroska 
 Format version : Version 4 / Version 2 
 File size : 853 MiB 
 Duration : 1h 29mn 
 Overall bit rate : 1 339 Kbps 
 Movie name : The Ant Bully (2006) 720p BRRip X264 Hindi R@J@T 
 Encoded date : UTC 2013-03-12 04:28:56 
 Writing application : mkvmerge v6.0.0 ('Coming Up For Air') built on Jan 20 2013 09:52:00 
 Writing library : libebml v1.3.0 + libmatroska v1.4.0 

 Video 
 ID : 1 
 Format : AVC 
 Format/Info : Advanced Video Codec 
 Format profile : Main@L5.1 
 Format settings, CABAC : Yes 
 Format settings, ReFrames : 1 frame 
 Codec ID : V_MPEG4/ISO/AVC 
 Duration : 1h 29mn 
 Bit rate : 1 184 Kbps 
 Width : 1 280 pixels 
 Height : 720 pixels 
 Display aspect ratio : 16:9 
 Frame rate mode : Constant 
 Frame rate : 23.976 fps 
 Color space : YUV 
 Chroma subsampling : 4:2:0 
 Bit depth : 8 bits 
 Scan type : Progressive 
 Bits/(Pixel*Frame) : 0.054 
 Stream size : 754 MiB (88%) 
 Title : R@J@T 
 Language : English 
 Default : Yes 
 Forced : No 

 Audio 
 ID : 2 
 Format : MPEG Audio 
 Format version : Version 1 
 Format profile : Layer 3 
 Codec ID : A_MPEG/L3 
 Codec ID/Hint : MP3 
 Duration : 1h 29mn 
 Bit rate mode : Constant 
 Bit rate : 128 Kbps 
 Channel(s) : 2 channels 
 Sampling rate : 48.0 KHz 
 Compression mode : Lossy 
 Stream size : 81.5 MiB (10%) 
 Title : R@J@T 
 Writing library : LAMELAME_MAJOR_VERSI 
 Language : Hindi 
 Default : Yes 
 Forced : No 





 SPECIAL NOTE: CHECK SCREEN SHOTS (INSIDE THE TORRENT) AND SAMPLE BEFORE DOWNLOAD FOR SATISFACTION.


 IF YOU LIKE MY WORK PLEASE SEED THE TORRENT



 THANKS 
 R@J@T